# xmcd CD database file
# Copyright (C) 1996 Ti Kan
#
# Track frame offsets:
#	150
#	8100
#	35175
#	69450
#	105450
#	142425
#	172575
#	182250
#	206250
#	243450
#	268725
#	297600
# Disc length: 4331 seconds
#
# Revision: 1
# Processed by: cddbd v1.4PL0 Copyright (c) Steve Scherf et al.
# Submitted via: CDCOPY 4.900
#
DISCID=ae10e90c
DTITLE=Sam Bush - Carolina Theatre, NC 10-4-97 [CD1 of 2)
DYEAR=1900
DGENRE=
TTITLE0=Intro and Tune Up
TTITLE1=Watson Allman
TTITLE2=Same Ol' River
TTITLE3=All Night Radio
TTITLE4=Mr. Freddy
TTITLE5=Hold Onto Me
TTITLE6=Instrumental (with john cowan)
TTITLE7=I'm Doing Alright
TTITLE8=Missippi Delta Blues
TTITLE9=Old Joe Clark
TTITLE10=Midnight Rider
TTITLE11=Spider John
EXTD=
EXTT0=
EXTT1=
EXTT2=
EXTT3=
EXTT4=
EXTT5=
EXTT6=
EXTT7=
EXTT8=
EXTT9=
EXTT10=
EXTT11=
PLAYORDER=
